<svg width="40.000000" height="40.000000" viewBox="0 0 40 40" fill="none" xmlns="http://www.w3.org/2000/svg" xmlns:xlink="http://www.w3.org/1999/xlink">
	<desc>
			Created with Pixso.
	</desc>
	<defs/>
	<path id="Detailed" d="M0 19.9685C0 8.95804 8.95801 0 19.9685 0C30.979 0 39.937 8.95804 39.937 19.9685C39.937 30.9789 30.979 39.937 19.9685 39.937C8.95801 39.937 0 30.9789 0 19.9685ZM9.72314 34.0915C5.35327 30.9125 2.49609 25.7739 2.49609 19.9685L7.48804 19.9685L7.48804 17.4725L2.69531 17.4725C3.22705 13.7809 4.90649 10.4615 7.37329 7.89014L10.261 10.7777L12.0256 9.01297L9.22852 6.21573C11.8865 4.13544 15.1548 2.8132 18.7205 2.55942L18.7205 6.2403L21.2166 6.2403L21.2166 2.55936C24.782 2.8132 28.0505 4.13538 30.7085 6.21564L27.9114 9.01291L29.676 10.7777L32.5637 7.89008C35.0305 10.4614 36.71 13.7809 37.2417 17.4724L32.4487 17.4724L32.4487 19.9685L37.4409 19.9685C37.4409 25.7739 34.5837 30.9125 30.2139 34.0915C23.9966 30.3772 15.9404 30.3772 9.72314 34.0915ZM18.7803 10.8509C18.1453 12.8289 14.9763 22.8059 14.9763 24.9606C14.9763 27.7139 17.2153 29.9528 19.9685 29.9528C22.7217 29.9528 24.9607 27.7138 24.9607 24.9606C24.9607 22.8059 21.7917 12.8289 21.1567 10.8509C20.8252 9.81732 19.1116 9.81732 18.7803 10.8509ZM17.4724 24.9606C17.4724 26.3367 18.5925 27.4567 19.9685 27.4567C21.3445 27.4567 22.4646 26.3367 22.4646 24.9606C22.4646 23.9405 21.2019 19.4651 19.9685 15.4176C18.7351 19.4651 17.4724 23.9405 17.4724 24.9606ZM27.7727 35.5789C22.9099 33.1766 17.0271 33.1766 12.1646 35.5789C14.5168 36.7599 17.1619 37.441 19.9685 37.441C22.7751 37.441 25.4202 36.7599 27.7727 35.5789Z" clip-rule="evenodd" fill="#2BD0D0" fill-opacity="1.000000" fill-rule="evenodd"/>
</svg>
