<svg xmlns="http://www.w3.org/2000/svg" width="120" height="32" fill="none"><path fill="#FFF" fill-rule="evenodd" d="M15.715 6.932c-.069-.09-.307-.26-.714-.51a13.49 13.49 0 0 0-1.53-.782 14.82 14.82 0 0 0-2.006-.714 8.006 8.006 0 0 0-2.176-.306c-1.995 0-2.992.669-2.992 2.006 0 .408.107.748.323 1.02.215.272.532.516.952.731.419.215.946.414 1.58.595l1.406.393.805.219c1.156.317 2.198.663 3.128 1.037.929.374 1.716.839 2.363 1.394a5.647 5.647 0 0 1 1.496 2.023c.35.793.526 1.745.526 2.856 0 1.36-.254 2.51-.764 3.451a6.45 6.45 0 0 1-2.023 2.278c-.84.578-1.802.997-2.89 1.258a14.4 14.4 0 0 1-3.366.391 19.672 19.672 0 0 1-5.44-.8c-.884-.26-1.74-.571-2.568-.934A14.36 14.36 0 0 1-.469 21.28l2.448-4.862c.09.113.385.329.884.646a13.25 13.25 0 0 0 1.853.952c.736.317 1.558.6 2.464.85.907.25 1.825.374 2.755.374 1.971 0 2.958-.6 2.958-1.802 0-.453-.148-.827-.443-1.122-.294-.295-.702-.561-1.223-.799a12.444 12.444 0 0 0-1.505-.56l-1.701-.495-.977-.288c-1.11-.34-2.074-.708-2.89-1.105-.815-.397-1.49-.856-2.022-1.377A5.002 5.002 0 0 1 .942 9.89C.68 9.21.55 8.417.55 7.51c0-1.27.238-2.391.713-3.366a7.266 7.266 0 0 1 1.939-2.465A8.434 8.434 0 0 1 6.042.166c1.076-.34 2.215-.51 3.417-.51.838 0 1.665.08 2.481.238.817.159 1.599.363 2.347.612.747.25 1.444.533 2.09.85.646.317 1.241.635 1.786.952l-2.448 4.624ZM39.139 24h-5.44V13.97c0-1.156-.227-2.006-.68-2.55-.454-.544-1.077-.816-1.87-.816-.318 0-.663.074-1.037.221a4.17 4.17 0 0 0-1.088.646 5.833 5.833 0 0 0-.97 1.003 4.401 4.401 0 0 0-.68 1.292V24h-5.44V-.82h5.44v9.962a6.787 6.787 0 0 1 2.602-2.465c1.076-.578 2.26-.867 3.553-.867 1.201 0 2.17.21 2.906.629.737.42 1.304.952 1.7 1.598.397.646.664 1.371.8 2.176.136.805.204 1.592.204 2.363V24Zm12.34.34c-1.519 0-2.873-.25-4.063-.748-1.19-.499-2.193-1.173-3.01-2.023a8.545 8.545 0 0 1-1.852-2.958 9.974 9.974 0 0 1-.63-3.52c0-1.223.21-2.396.63-3.518a8.543 8.543 0 0 1 1.853-2.958c.816-.85 1.819-1.53 3.009-2.04s2.544-.765 4.063-.765c1.518 0 2.867.255 4.046.765 1.178.51 2.176 1.19 2.992 2.04a8.752 8.752 0 0 1 1.87 2.958 9.735 9.735 0 0 1 .646 3.519c0 1.224-.21 2.397-.63 3.519a8.545 8.545 0 0 1-1.852 2.958c-.816.85-1.82 1.524-3.01 2.023-1.19.499-2.544.748-4.062.748Zm-2.856-5.865c-.748-.85-1.122-1.978-1.122-3.383 0-.68.102-1.309.306-1.887a4.57 4.57 0 0 1 .833-1.479 3.702 3.702 0 0 1 2.84-1.292c1.132 0 2.073.425 2.82 1.275.749.85 1.123 1.978 1.123 3.383a5.63 5.63 0 0 1-.306 1.887 4.568 4.568 0 0 1-.833 1.479 3.75 3.75 0 0 1-1.241.952 3.59 3.59 0 0 1-1.564.34c-1.156 0-2.108-.425-2.856-1.275Zm26.654-7.667c-1.315.023-2.505.238-3.57.646-1.065.408-1.836 1.02-2.312 1.836V24h-5.44V6.15h4.998v3.604c.612-1.201 1.4-2.142 2.363-2.822.963-.68 1.989-1.031 3.077-1.054h.544c.113 0 .227.011.34.034v4.896Zm14.074 12.24a21.74 21.74 0 0 1-2.567.884c-.963.272-1.932.408-2.907.408-.68 0-1.32-.085-1.92-.255a4.286 4.286 0 0 1-1.582-.816c-.453-.374-.81-.867-1.071-1.48-.26-.611-.39-1.348-.39-2.209v-9.316h-2.279V6.15h2.278V.472h5.44V6.15h3.638v4.114h-3.638v7.446c0 .59.147 1.014.442 1.275.295.26.669.391 1.122.391.408 0 .827-.068 1.258-.204.43-.136.805-.284 1.122-.442l1.054 4.318ZM91.627-.82h5.44v18.462c0 1.36.578 2.04 1.734 2.04.272 0 .572-.04.901-.119.329-.08.629-.198.901-.357l.714 4.08c-.68.317-1.462.566-2.346.748-.884.181-1.711.272-2.482.272-1.564 0-2.765-.408-3.604-1.224-.839-.816-1.258-1.995-1.258-3.536V-.82Zm11.456 27.506c.454.159.878.272 1.275.34.397.068.754.102 1.071.102.657 0 1.167-.227 1.53-.68.363-.453.692-1.27.986-2.448l-6.8-17.85h5.61l4.148 13.192 3.57-13.192h5.1l-6.8 20.74a7.106 7.106 0 0 1-2.55 3.587c-1.224.918-2.674 1.377-4.352 1.377a8.19 8.19 0 0 1-1.377-.119 7.537 7.537 0 0 1-1.411-.391v-4.658Z" clip-rule="evenodd"/></svg>