<svg width="48.000000" height="48.000000" viewBox="0 0 48 48" fill="none" xmlns="http://www.w3.org/2000/svg" xmlns:xlink="http://www.w3.org/1999/xlink">
	<desc>
			Created with Pixso.
	</desc>
	<defs/>
	<path id="Fully" d="M45.6809 5.97284C45.9783 5.83075 46.3271 5.84869 46.6084 6.02008C46.8887 6.19257 47.0637 6.49396 47.0754 6.82281L47.4587 15.2428C47.4646 15.3705 47.4675 15.4981 47.4675 15.6255C47.4675 17.1276 47.0576 18.6042 46.2788 19.894C45.613 20.9941 44.7026 21.9254 43.6177 22.6153L41.5525 23.9223L28.4731 45.62C27.8027 46.7395 26.7124 47.5437 25.4453 47.8546C25.0557 47.9509 24.6558 47.9996 24.2544 48C22.2329 48.0007 20.4214 46.7523 19.7021 44.863C19.6313 44.803 5.01416 22.6476 5.00708 22.638C5.00024 22.6281 5.00024 22.6153 4.99316 22.6054C4.93872 22.5143 4.89941 22.4143 4.8772 22.3103C4.87085 22.2901 4.86572 22.2693 4.86133 22.2484C4.85742 22.2356 4.854 22.2224 4.85156 22.2092L4.36011 18.0728L2.86816 15.8023L0.162842 11.6953C0.118896 11.629 0.0834961 11.5579 0.0571289 11.4828C0.0183105 11.374 0 11.2629 0 11.1537C0 10.7493 0.251709 10.3704 0.654297 10.2271L4.48096 8.88495C4.90649 8.73553 5.37915 8.89484 5.62744 9.2713L7.79102 12.5559L9.28784 14.8275L12.8931 16.9123C12.9055 16.9193 12.9089 16.9262 12.9282 16.9391C12.948 16.9519 12.9648 16.9676 12.9836 16.9812C13.0645 17.0416 13.1355 17.1137 13.1948 17.1958C13.2019 17.2053 13.2136 17.2115 13.2212 17.2221L19.3479 26.5213L19.3479 22.5699C19.3494 22.4736 19.3647 22.3777 19.3945 22.2857L21.2324 16.7717L17.4795 9.26837C17.4102 9.12939 17.3762 8.97903 17.3762 8.82938C17.3762 8.62021 17.4429 8.41235 17.573 8.23859L23.4736 0.371277C23.5154 0.32074 23.562 0.273865 23.6128 0.232117C24.0476 -0.125305 24.6895 -0.0630493 25.0469 0.371277L30.9473 8.23859C31.0796 8.41299 31.1475 8.62253 31.1475 8.8334C31.1475 8.98163 31.114 9.13052 31.0459 9.26837L27.293 16.7717L29.1309 22.2857C29.1606 22.3777 29.176 22.4736 29.1775 22.5699C29.1775 22.5798 29.1821 22.5875 29.1821 22.5966L29.1821 25.3982L33.1326 18.8368L33.3291 16.4011C33.5647 13.4392 35.3687 10.8303 38.0566 9.56427L45.6809 5.97284ZM39.4856 23.5444L37.9641 26.0709L32.9102 23.0226L34.4336 20.4961L39.4856 23.5444ZM21.3149 38.4463L21.3149 23.5799L27.2153 23.5799L27.2153 28.6604L21.3149 38.4463ZM23.0076 17.6795L25.5229 17.6795L26.8337 21.613L21.6965 21.613L23.0076 17.6795ZM24.2651 10.7955C23.7219 10.7955 23.2817 10.3553 23.2817 9.81219C23.2817 9.2691 23.7219 8.82892 24.2651 8.82892C24.8081 8.82892 25.2488 9.2691 25.2488 9.81219C25.2488 10.3553 24.8081 10.7955 24.2651 10.7955ZM24.2651 2.60077L29.0142 8.93219L25.624 15.7126L25.2483 15.7126L25.2483 12.5815C26.4595 12.1534 27.2161 11.0154 27.2161 9.80014C27.2161 9.47372 27.1616 9.14175 27.0464 8.81647C26.5034 7.28021 24.8181 6.47528 23.2817 7.01837C22.0708 7.4465 21.3142 8.58466 21.3142 9.79993C21.3142 10.1263 21.3689 10.4582 21.4836 10.7834C21.7808 11.6235 22.4417 12.2845 23.2817 12.5815L23.2817 15.7126L22.906 15.7126L19.5161 8.93219L24.2651 2.60077ZM10.53 17.818L10.2407 18.0088L6.6189 20.3946L6.28564 17.6078C6.26733 17.4561 6.21411 17.3111 6.12988 17.1837L5.04858 15.5416L6.69067 14.4598L7.77246 16.1019C7.85669 16.2293 7.96899 16.3352 8.10083 16.4117L10.53 17.818ZM4.40796 10.9921L5.60767 12.8144L3.96558 13.8962L2.49048 11.6641L4.40796 10.9921ZM9.65649 20.7469L12.1152 19.1231L19.3479 30.0952L19.3479 40.8212L7.19312 22.3714L9.65649 20.7469ZM26.7915 44.5983C25.9578 45.9983 24.1472 46.4575 22.7471 45.6237C21.8203 45.0719 21.3059 44.0917 21.3059 43.086C21.3059 42.5725 21.4402 42.0524 21.7217 41.5792C21.728 41.5693 21.7339 41.5598 21.7397 41.5499L29.1653 29.2346L29.1821 29.2346L29.1821 29.2082L31.8943 24.709L34.4209 26.2353L36.9512 27.7555L26.7915 44.5983ZM44.5991 18.8745C44.0918 19.7124 43.3975 20.4221 42.5706 20.9472L40.8237 22.0536L37.9722 20.3368L35.1201 18.6196L35.2822 16.5545C35.4624 14.2965 36.8376 12.3079 38.8865 11.3422L45.1802 8.37921L45.3054 11.1199C45.207 11.1093 45.1074 11.1133 45.0103 11.1328L42.6284 11.7231C40.4119 12.2643 38.6958 14.0185 38.2031 16.2466C38.187 16.3189 38.1792 16.3912 38.1792 16.4623C38.1792 16.9124 38.49 17.3182 38.9478 17.4206C39.0183 17.4371 39.0906 17.4455 39.1631 17.4455C39.623 17.4448 40.0215 17.1255 40.1218 16.6765C40.4543 15.1783 41.6082 13.9987 43.0986 13.6336L45.396 13.0642L45.4993 15.3263C45.5037 15.4232 45.5059 15.5202 45.5059 15.617C45.5059 16.7631 45.1934 17.8898 44.5991 18.8745Z" clip-rule="evenodd" fill="#2BD0D0" fill-opacity="1.000000" fill-rule="evenodd"/>
</svg>
