<svg width="1440.000000" height="250.000000" viewBox="0 0 1440 250" fill="none" xmlns="http://www.w3.org/2000/svg" xmlns:xlink="http://www.w3.org/1999/xlink">
	<desc>
			Created with Pixso.
	</desc>
	<defs/>
	<rect id="Mask" width="1440.000000" height="250.000000" fill="#3A3054" fill-opacity="1.000000"/>
	<rect id="Mask" width="1440.000000" height="250.000000" stroke="#979797" stroke-opacity="0" stroke-width="0.000000"/>
	<mask id="mask0_949" mask-type="alpha" maskUnits="userSpaceOnUse" x="0.000000" y="0.000000" width="1440.000000" height="250.000000">
		<rect id="Mask" width="1440.000000" height="250.000000" fill="#3A3054" fill-opacity="1.000000"/>
		<rect id="Mask" width="1440.000000" height="250.000000" stroke="#979797" stroke-opacity="0" stroke-width="0.000000"/>
	</mask>
	<g mask="url(#mask0_949)">
		<path id="Path 2" d="M830 -63.49C830 19.35 854.36 78.67 944.73 117C1035.1 155.32 1122.42 120.35 1210.01 140.39C1297.6 160.44 1297.6 289.59 1380.09 369.07C1462.57 448.54 1636.49 467.85 1777.91 387.22C1919.32 306.58 1983.43 118.32 1941.17 7.31C1898.92 -103.69 1817.94 -205 1427.24 -205C1036.53 -205 830 -146.32 830 -63.49Z" fill="#4B3F6B" fill-opacity="1.000000" fill-rule="evenodd"/>
		<path id="Path 2" d="M944.73 117C1035.1 155.32 1122.42 120.35 1210.01 140.39C1297.6 160.44 1297.6 289.59 1380.09 369.07C1462.57 448.54 1636.49 467.85 1777.91 387.22C1919.32 306.58 1983.43 118.32 1941.17 7.31C1898.92 -103.69 1817.94 -205 1427.24 -205C1036.53 -205 830 -146.32 830 -63.49C830 19.35 854.36 78.67 944.73 117Z" stroke="#979797" stroke-opacity="0" stroke-width="0.000000"/>
	</g>
	<g mask="url(#mask0_949)">
		<path id="Path 2 Copy" d="M-263.36 570.9C-233.67 648.24 -189.67 694.89 -91.57 698.28C6.54 701.67 75.52 637.73 164.48 625.06C253.44 612.39 299.72 732.96 405.21 777.59C510.7 822.23 679.98 777.93 783.11 651.97C886.23 526.02 878.61 327.28 799.39 238.79C720.16 150.3 608.25 84.74 243.5 224.76C-121.26 364.77 -293.04 493.57 -263.36 570.9Z" fill="#4B3F6B" fill-opacity="1.000000" fill-rule="evenodd"/>
		<path id="Path 2 Copy" d="M-91.57 698.28C6.54 701.67 75.52 637.73 164.48 625.06C253.44 612.39 299.72 732.96 405.21 777.59C510.7 822.23 679.98 777.93 783.11 651.97C886.23 526.02 878.61 327.28 799.39 238.79C720.16 150.3 608.25 84.74 243.5 224.76C-121.26 364.77 -293.04 493.57 -263.36 570.9C-233.67 648.24 -189.67 694.89 -91.57 698.28Z" stroke="#979797" stroke-opacity="0" stroke-width="0.000000"/>
	</g>
	<g mask="url(#mask0_949)">
		<path id="Path 2 Copy 2" d="M-514 -377.49C-514 -294.65 -489.64 -235.33 -399.27 -197C-308.9 -158.68 -221.59 -193.65 -134 -173.6C-46.41 -153.56 -46.41 -24.41 36.08 55.07C118.57 134.54 292.49 153.85 433.9 73.22C575.32 -7.42 639.42 -195.68 597.17 -306.69C554.91 -417.69 473.94 -519 83.23 -519C-307.48 -519 -514 -460.32 -514 -377.49Z" fill="#4B3F6B" fill-opacity="1.000000" fill-rule="evenodd"/>
		<path id="Path 2 Copy 2" d="M-399.27 -197C-308.9 -158.68 -221.59 -193.65 -134 -173.6C-46.41 -153.56 -46.41 -24.41 36.08 55.07C118.57 134.54 292.49 153.85 433.9 73.22C575.32 -7.42 639.42 -195.68 597.17 -306.69C554.91 -417.69 473.94 -519 83.23 -519C-307.48 -519 -514 -460.32 -514 -377.49C-514 -294.65 -489.64 -235.33 -399.27 -197Z" stroke="#979797" stroke-opacity="0" stroke-width="0.000000"/>
	</g>
</svg>
