<svg xmlns="http://www.w3.org/2000/svg" width="24" height="24" fill="none"><path fill="#FFF" fill-rule="evenodd" d="M12 0C8.741 0 8.333.014 7.053.072 2.695.272.273 2.69.073 7.052.013 8.333 0 8.741 0 12c0 3.259.014 3.668.072 4.948.2 4.358 2.618 6.78 6.98 6.98C8.333 23.986 8.741 24 12 24c3.259 0 3.668-.014 4.948-.072 4.354-.2 6.782-2.618 6.979-6.98.06-1.28.073-1.689.073-4.948 0-3.259-.014-3.667-.072-4.947-.196-4.354-2.617-6.78-6.979-6.98C15.668.014 15.259 0 12 0Zm4.85 2.233c-1.266-.058-1.646-.07-4.85-.07-3.204 0-3.583.012-4.85.07-3.254.147-4.769 1.691-4.918 4.918-.057 1.266-.07 1.645-.07 4.849 0 3.205.012 3.584.07 4.849.148 3.22 1.66 4.771 4.919 4.92 1.265.058 1.645.07 4.849.07 3.206 0 3.584-.012 4.85-.07 3.255-.148 4.77-1.694 4.919-4.919.057-1.265.069-1.644.069-4.849 0-3.204-.011-3.584-.069-4.849-.148-3.228-1.667-4.771-4.919-4.919Zm.115 3.362a1.44 1.44 0 1 1 2.881.001 1.44 1.44 0 0 1-2.88-.001ZM5.838 12a6.162 6.162 0 1 1 12.324 0 6.162 6.162 0 0 1-12.324 0ZM12 16a4 4 0 1 1 0-8 4 4 0 0 1 0 8Z" clip-rule="evenodd"/></svg>