<svg xmlns="http://www.w3.org/2000/svg" width="24" height="19" fill="none"><path fill="#FFF" d="M24 1.55c-.89.39-1.84.66-2.83.78A4.94 4.94 0 0 0 23.33-.4c-.95.57-2 .98-3.13 1.2a4.881 4.881 0 0 0-3.59-1.56c-3.18 0-5.51 2.97-4.8 6.05C7.72 5.08 4.1 3.12 1.67.14a4.938 4.938 0 0 0 1.52 6.58c-.81-.03-1.57-.25-2.23-.62-.05 2.28 1.58 4.42 3.95 4.89-.69.19-1.45.23-2.23.09a4.949 4.949 0 0 0 4.61 3.42A9.964 9.964 0 0 1 0 16.54c2.17 1.39 4.76 2.21 7.54 2.21 9.14 0 14.31-7.72 14-14.65.96-.69 1.8-1.56 2.46-2.55Z"/></svg>